<?xml version="1.0" encoding="utf-8"?>
<!-- Generator: Adobe Illustrator 16.0.3, SVG Export Plug-In . SVG Version: 6.00 Build 0)  -->
<!DOCTYPE svg PUBLIC "-//W3C//DTD SVG 1.1//EN" "http://www.w3.org/Graphics/SVG/1.1/DTD/svg11.dtd">
<svg version="1.1" id="Layer_1" xmlns="http://www.w3.org/2000/svg" xmlns:xlink="http://www.w3.org/1999/xlink" x="0px" y="0px"
	 width="150px" height="130px" viewBox="0 0 150 130" enable-background="new 0 0 150 130" xml:space="preserve">
<filter  width="200%" id="innerglow" y="-50%" x="-50%" height="200%">
	<feGaussianBlur  in="SourceAlpha" stdDeviation="100" result="blur"></feGaussianBlur>
	<feOffset  dy="35" dx="35"></feOffset>
	<feComposite  k3="1" k2="-1" operator="arithmetic" in2="SourceAlpha" result="shadowDiff"></feComposite>
	<feFlood  flood-opacity="1.0" flood-color="#c4c4c4"></feFlood>
	<feComposite  operator="in" in2="shadowDiff"></feComposite>
	<feComposite  operator="over" in2="SourceGraphic" result="firstfilter"></feComposite>
	<feGaussianBlur  in="firstfilter" stdDeviation="10" result="blur2"></feGaussianBlur>
	<feOffset  dy="-3" dx="-3"></feOffset>
	<feComposite  k3="1" k2="-1" operator="arithmetic" in2="firstfilter" result="shadowDiff"></feComposite>
	<feFlood  flood-opacity="1" flood-color="#000000"></feFlood>
	<feComposite  operator="in" in2="shadowDiff"></feComposite>
	<feComposite  operator="over" in2="firstfilter"></feComposite>
</filter>
<g>
	<defs>
		<polygon id="SVGID_1_" points="37.564,129.14 0.998,65.001 37.564,0.861 112.436,0.861 149.002,65.001 112.436,129.14 		"/>
	</defs>
	<clipPath id="SVGID_2_">
		<use xlink:href="#SVGID_1_"  overflow="visible"/>
	</clipPath>
	<g clip-path="url(#SVGID_2_)" filter="url(#innerglow)">
		<polygon fill="#FFFFFF" points="38.338,129.14 1.772,65.001 38.338,0.861 113.21,0.861 149.776,65.001 113.21,129.14 		"/>
	</g>
</g>
<g>
	<linearGradient id="SVGID_3_" gradientUnits="userSpaceOnUse" x1="23.5288" y1="13.5283" x2="126.4722" y2="116.4717">
		<stop  offset="0" style="stop-color:#D9D9D9"/>
		<stop  offset="1" style="stop-color:#727272"/>
	</linearGradient>
	<path fill="url(#SVGID_3_)" d="M112.944,130H37.057l-0.249-0.438L0,65l0.241-0.423L37.057,0h75.887L150,65L112.944,130z
		 M38.072,128.278h73.856L148.003,65L111.928,1.722H38.072L1.997,65L38.072,128.278z"/>
</g>
</svg>
